<mxfile host="app.diagrams.net" modified="2022-11-24T18:23:03.837Z" agent="5.0 (Windows NT 10.0; Win64; x64) AppleWebKit/537.36 (KHTML, like Gecko) Chrome/106.0.0.0 Safari/537.36 OPR/92.0.0.0 (Edition Yx GX)" etag="wKc_YCZairKnHh12nJ1j" version="20.6.0" type="github">
  <diagram id="PMgIvLA4cq7B3kXyZCFW" name="Страница 1">
    <mxGraphModel dx="1381" dy="802" grid="1" gridSize="10" guides="1" tooltips="1" connect="1" arrows="1" fold="1" page="1" pageScale="1" pageWidth="1169" pageHeight="1654" math="0" shadow="0">
      <root>
        <mxCell id="0" />
        <mxCell id="1" parent="0" />
        <mxCell id="P6CMftSpUowUVF516odp-1" value="ДЗ-1 Часть 1 &quot;Нахождение&amp;nbsp;среднего арифметического из 4-х чисел&quot;" style="text;html=1;align=center;verticalAlign=middle;resizable=0;points=[];autosize=1;strokeColor=none;fillColor=none;fontFamily=Courier New;fontStyle=1;fontSize=14;" parent="1" vertex="1">
          <mxGeometry x="325" y="30" width="550" height="30" as="geometry" />
        </mxCell>
        <mxCell id="fFYrL22Xk3de1SAdjuww-4" style="edgeStyle=orthogonalEdgeStyle;rounded=0;orthogonalLoop=1;jettySize=auto;html=1;entryX=0.5;entryY=0;entryDx=0;entryDy=0;" edge="1" parent="1" source="P6CMftSpUowUVF516odp-2" target="P6CMftSpUowUVF516odp-47">
          <mxGeometry relative="1" as="geometry" />
        </mxCell>
        <mxCell id="P6CMftSpUowUVF516odp-2" value="start" style="ellipse;whiteSpace=wrap;html=1;fontFamily=Courier New;fontSize=14;" parent="1" vertex="1">
          <mxGeometry x="470" y="80" width="120" height="60" as="geometry" />
        </mxCell>
        <mxCell id="P6CMftSpUowUVF516odp-5" style="edgeStyle=orthogonalEdgeStyle;rounded=0;orthogonalLoop=1;jettySize=auto;html=1;exitX=0.5;exitY=1;exitDx=0;exitDy=0;fontFamily=Courier New;fontSize=14;" parent="1" source="P6CMftSpUowUVF516odp-2" target="P6CMftSpUowUVF516odp-2" edge="1">
          <mxGeometry relative="1" as="geometry" />
        </mxCell>
        <mxCell id="P6CMftSpUowUVF516odp-20" style="edgeStyle=orthogonalEdgeStyle;rounded=0;orthogonalLoop=1;jettySize=auto;html=1;fontFamily=Courier New;fontSize=14;entryX=0.5;entryY=0;entryDx=0;entryDy=0;" parent="1" target="P6CMftSpUowUVF516odp-21" edge="1">
          <mxGeometry relative="1" as="geometry">
            <mxPoint x="810.0000000000002" y="550" as="targetPoint" />
            <mxPoint x="600" y="420" as="sourcePoint" />
          </mxGeometry>
        </mxCell>
        <mxCell id="P6CMftSpUowUVF516odp-55" value="no" style="edgeLabel;html=1;align=center;verticalAlign=middle;resizable=0;points=[];fontSize=14;fontFamily=Courier New;" parent="P6CMftSpUowUVF516odp-20" vertex="1" connectable="0">
          <mxGeometry x="-0.7067" y="3" relative="1" as="geometry">
            <mxPoint x="20" y="3" as="offset" />
          </mxGeometry>
        </mxCell>
        <mxCell id="P6CMftSpUowUVF516odp-44" value="" style="edgeStyle=orthogonalEdgeStyle;rounded=0;orthogonalLoop=1;jettySize=auto;html=1;fontFamily=Courier New;fontSize=14;" parent="1" source="P6CMftSpUowUVF516odp-21" target="P6CMftSpUowUVF516odp-43" edge="1">
          <mxGeometry relative="1" as="geometry" />
        </mxCell>
        <mxCell id="P6CMftSpUowUVF516odp-21" value="average number=sum/number" style="whiteSpace=wrap;html=1;fontFamily=Courier New;fontSize=14;" parent="1" vertex="1">
          <mxGeometry x="740" y="540" width="150" height="60" as="geometry" />
        </mxCell>
        <mxCell id="P6CMftSpUowUVF516odp-37" style="edgeStyle=orthogonalEdgeStyle;rounded=0;orthogonalLoop=1;jettySize=auto;html=1;fontFamily=Courier New;fontSize=14;" parent="1" source="P6CMftSpUowUVF516odp-36" edge="1">
          <mxGeometry relative="1" as="geometry">
            <mxPoint x="530" y="370" as="targetPoint" />
          </mxGeometry>
        </mxCell>
        <mxCell id="P6CMftSpUowUVF516odp-36" value="index=0;&lt;br style=&quot;font-size: 14px;&quot;&gt;sum=0;" style="whiteSpace=wrap;html=1;fontFamily=Courier New;fontSize=14;" parent="1" vertex="1">
          <mxGeometry x="470" y="290" width="120" height="60" as="geometry" />
        </mxCell>
        <mxCell id="fFYrL22Xk3de1SAdjuww-11" style="edgeStyle=orthogonalEdgeStyle;rounded=0;orthogonalLoop=1;jettySize=auto;html=1;entryX=0;entryY=0.5;entryDx=0;entryDy=0;" edge="1" parent="1" source="P6CMftSpUowUVF516odp-38" target="fFYrL22Xk3de1SAdjuww-6">
          <mxGeometry relative="1" as="geometry">
            <mxPoint x="330" y="520" as="targetPoint" />
            <Array as="points">
              <mxPoint x="360" y="730" />
              <mxPoint x="360" y="415" />
            </Array>
          </mxGeometry>
        </mxCell>
        <mxCell id="P6CMftSpUowUVF516odp-38" value="index=index+1" style="whiteSpace=wrap;html=1;fontSize=14;fontFamily=Courier New;rounded=0;" parent="1" vertex="1">
          <mxGeometry x="470" y="700" width="120" height="60" as="geometry" />
        </mxCell>
        <mxCell id="fFYrL22Xk3de1SAdjuww-2" style="edgeStyle=orthogonalEdgeStyle;rounded=0;orthogonalLoop=1;jettySize=auto;html=1;entryX=0.5;entryY=0;entryDx=0;entryDy=0;" edge="1" parent="1" source="P6CMftSpUowUVF516odp-40" target="P6CMftSpUowUVF516odp-38">
          <mxGeometry relative="1" as="geometry">
            <Array as="points">
              <mxPoint x="530" y="660" />
              <mxPoint x="530" y="660" />
            </Array>
          </mxGeometry>
        </mxCell>
        <mxCell id="P6CMftSpUowUVF516odp-40" value="sum=sum+number[index]" style="whiteSpace=wrap;html=1;fontSize=14;fontFamily=Courier New;rounded=0;" parent="1" vertex="1">
          <mxGeometry x="400" y="560" width="260" height="60" as="geometry" />
        </mxCell>
        <mxCell id="P6CMftSpUowUVF516odp-46" value="" style="edgeStyle=orthogonalEdgeStyle;rounded=0;orthogonalLoop=1;jettySize=auto;html=1;fontFamily=Courier New;fontSize=14;" parent="1" source="P6CMftSpUowUVF516odp-43" target="P6CMftSpUowUVF516odp-45" edge="1">
          <mxGeometry relative="1" as="geometry" />
        </mxCell>
        <mxCell id="P6CMftSpUowUVF516odp-43" value="print = average number" style="shape=document;whiteSpace=wrap;html=1;boundedLbl=1;fontSize=14;fontFamily=Courier New;" parent="1" vertex="1">
          <mxGeometry x="740" y="630" width="150" height="80" as="geometry" />
        </mxCell>
        <mxCell id="P6CMftSpUowUVF516odp-45" value="stop" style="ellipse;whiteSpace=wrap;html=1;fontSize=14;fontFamily=Courier New;" parent="1" vertex="1">
          <mxGeometry x="755" y="780" width="120" height="60" as="geometry" />
        </mxCell>
        <mxCell id="fFYrL22Xk3de1SAdjuww-5" style="edgeStyle=orthogonalEdgeStyle;rounded=0;orthogonalLoop=1;jettySize=auto;html=1;entryX=0.5;entryY=0;entryDx=0;entryDy=0;" edge="1" parent="1" source="P6CMftSpUowUVF516odp-47" target="P6CMftSpUowUVF516odp-36">
          <mxGeometry relative="1" as="geometry" />
        </mxCell>
        <mxCell id="P6CMftSpUowUVF516odp-47" value="number = [N]" style="shape=parallelogram;perimeter=parallelogramPerimeter;whiteSpace=wrap;html=1;fixedSize=1;fontSize=14;fontFamily=Courier New;rounded=0;" parent="1" vertex="1">
          <mxGeometry x="440" y="200" width="180" height="60" as="geometry" />
        </mxCell>
        <mxCell id="P6CMftSpUowUVF516odp-54" value="yes" style="text;html=1;align=center;verticalAlign=middle;resizable=0;points=[];autosize=1;strokeColor=none;fillColor=none;fontSize=14;fontFamily=Courier New;" parent="1" vertex="1">
          <mxGeometry x="530" y="480" width="50" height="30" as="geometry" />
        </mxCell>
        <mxCell id="fFYrL22Xk3de1SAdjuww-7" style="edgeStyle=orthogonalEdgeStyle;rounded=0;orthogonalLoop=1;jettySize=auto;html=1;entryX=0.5;entryY=0;entryDx=0;entryDy=0;" edge="1" parent="1" source="fFYrL22Xk3de1SAdjuww-6" target="P6CMftSpUowUVF516odp-40">
          <mxGeometry relative="1" as="geometry" />
        </mxCell>
        <mxCell id="fFYrL22Xk3de1SAdjuww-6" value="&lt;span style=&quot;font-family: &amp;quot;Courier New&amp;quot;; font-size: 14px;&quot;&gt;index &amp;lt; number&amp;nbsp;&lt;/span&gt;" style="rhombus;whiteSpace=wrap;html=1;" vertex="1" parent="1">
          <mxGeometry x="460" y="370" width="140" height="90" as="geometry" />
        </mxCell>
      </root>
    </mxGraphModel>
  </diagram>
</mxfile>
